<?xml version="1.0" standalone="no"?>
<!DOCTYPE svg PUBLIC "-//W3C//DTD SVG 20010904//EN"
 "http://www.w3.org/TR/2001/REC-SVG-20010904/DTD/svg10.dtd">
<svg version="1.0" xmlns="http://www.w3.org/2000/svg"
 width="630.000000pt" height="630.000000pt" viewBox="0 0 630.000000 630.000000"
 preserveAspectRatio="xMidYMid meet">
<metadata>
Created by potrace 1.14, written by Peter Selinger 2001-2017
</metadata>
<g transform="translate(0.000000,630.000000) scale(0.100000,-0.100000)"
fill="#000000" stroke="none">
<path d="M2868 6263 c12 -2 30 -2 40 0 9 3 -1 5 -23 4 -22 0 -30 -2 -17 -4z"/>
<path d="M2750 6249 c-14 -6 -36 -12 -50 -14 -84 -8 -232 -50 -333 -94 -51
-22 -124 -44 -222 -66 -89 -20 -215 -64 -251 -86 -17 -10 -37 -19 -44 -19 -8
0 -21 -6 -29 -14 -9 -8 -46 -31 -84 -51 -37 -20 -93 -52 -125 -70 -31 -19 -97
-55 -147 -80 -49 -26 -97 -54 -106 -63 -9 -9 -29 -28 -45 -41 -50 -42 -249
-215 -254 -222 -3 -3 -38 -34 -78 -68 -40 -34 -78 -77 -86 -94 -11 -28 -38
-59 -101 -117 -32 -30 -121 -150 -154 -209 -19 -33 -41 -69 -50 -79 -9 -10
-31 -47 -50 -83 -19 -35 -37 -66 -41 -69 -7 -5 -58 -96 -93 -165 -11 -22 -29
-51 -39 -64 -10 -13 -18 -38 -18 -55 0 -18 -8 -50 -19 -72 -10 -21 -22 -55
-26 -74 -4 -19 -11 -39 -15 -45 -11 -13 -60 -218 -60 -248 0 -12 -9 -56 -21
-97 -13 -48 -23 -125 -28 -215 -4 -77 -13 -150 -19 -162 -17 -31 -15 -105 5
-193 13 -60 16 -137 18 -380 1 -210 5 -325 14 -370 23 -110 82 -363 96 -410
17 -57 24 -109 25 -187 0 -49 3 -63 15 -63 8 0 15 -7 15 -15 0 -8 4 -15 9 -15
9 0 71 -85 71 -98 0 -4 18 -27 40 -51 21 -24 44 -57 51 -72 6 -16 15 -29 20
-29 5 0 9 -6 9 -12 1 -7 9 -31 20 -53 11 -22 20 -44 20 -50 0 -5 9 -21 20 -35
11 -14 20 -32 20 -40 0 -8 9 -26 20 -40 11 -14 20 -32 20 -41 0 -8 9 -25 20
-37 11 -12 20 -26 20 -32 0 -5 4 -10 9 -10 5 0 16 -15 24 -33 22 -46 99 -112
174 -149 69 -34 86 -53 103 -119 6 -24 21 -54 33 -66 12 -12 50 -51 85 -86 35
-36 79 -73 98 -83 19 -10 34 -22 34 -26 0 -5 6 -8 13 -8 7 0 18 -9 25 -20 7
-11 18 -20 26 -20 8 0 16 -7 20 -15 3 -8 13 -15 21 -15 16 0 87 -48 93 -62 2
-5 9 -8 16 -8 7 0 25 -11 41 -24 15 -13 43 -26 61 -29 18 -3 54 -22 80 -41 26
-20 55 -36 64 -36 10 0 23 -7 30 -15 7 -8 20 -15 30 -15 9 0 35 -13 56 -28 21
-16 46 -31 54 -35 8 -4 29 -16 45 -26 17 -11 46 -20 66 -20 20 -1 48 -10 62
-21 14 -11 37 -20 51 -20 14 0 26 -4 26 -10 0 -5 7 -10 16 -10 9 0 22 -7 28
-15 6 -9 29 -18 51 -21 22 -3 49 -9 60 -14 41 -17 54 -19 58 -7 5 15 176 24
186 10 3 -5 32 -17 63 -27 32 -10 60 -22 63 -27 22 -35 210 -54 620 -65 204
-5 255 -1 255 21 0 11 33 14 168 17 l167 3 104 43 c57 23 116 42 131 42 16 0
32 5 35 10 3 6 20 10 37 10 21 0 39 9 57 28 25 28 117 72 149 72 9 0 23 7 32
15 9 8 40 21 70 28 30 8 56 19 58 26 2 6 11 11 21 11 18 0 50 21 86 58 12 12
27 22 34 22 6 0 11 6 11 14 0 7 15 20 33 27 17 7 38 19 45 26 7 7 20 13 28 13
8 0 14 4 14 9 0 5 19 18 43 29 49 23 157 101 157 114 0 4 6 8 14 8 14 0 54 31
113 88 19 17 37 32 42 32 14 0 103 101 163 185 31 44 77 101 102 126 25 25 46
49 46 53 0 7 49 62 143 159 41 43 67 78 67 92 0 12 13 31 30 43 16 12 33 34
36 47 3 14 10 25 14 25 4 0 19 25 34 55 14 30 30 55 36 55 5 0 10 8 10 19 0
10 8 29 19 42 21 28 26 47 51 204 20 128 41 205 65 242 8 12 15 31 15 43 0 11
9 25 20 32 11 7 20 17 20 23 0 6 8 15 19 22 14 9 19 28 23 88 3 51 10 80 20
88 9 7 19 32 22 57 4 24 12 48 18 52 7 4 1 9 -15 13 -40 10 -38 64 3 98 34 29
37 54 16 119 -25 77 -36 172 -35 314 0 192 14 349 35 412 17 51 17 54 -4 120
-22 67 -54 208 -67 292 -4 24 -11 51 -15 60 -5 8 -13 41 -20 72 -6 31 -18 62
-26 68 -7 7 -14 16 -14 21 0 5 -18 32 -40 61 -22 29 -40 63 -40 75 0 12 -4 32
-9 45 -5 13 -26 76 -47 141 -20 65 -43 125 -51 132 -7 8 -13 21 -13 29 0 9 -7
16 -15 16 -8 0 -15 -4 -15 -10 0 -10 24 -77 41 -115 16 -36 29 -75 24 -75 -2
0 -43 51 -92 113 -48 61 -95 121 -104 132 -31 37 -104 129 -194 245 -49 63
-97 124 -107 135 -19 24 -253 319 -286 362 -56 74 -80 102 -133 153 -31 30
-70 66 -88 80 -17 14 -38 31 -46 38 -7 6 -17 12 -21 12 -4 0 -17 11 -30 25
-13 14 -29 25 -37 25 -8 0 -20 6 -26 14 -7 8 -27 18 -44 22 -18 3 -43 12 -57
20 -14 7 -54 25 -89 41 -36 15 -78 40 -95 56 -54 49 -120 86 -166 92 -25 4
-56 9 -70 11 -44 7 -164 25 -205 30 -22 3 -62 9 -90 14 -27 5 -70 12 -95 15
-25 3 -56 7 -70 9 -14 3 -41 7 -60 10 -19 3 -84 12 -145 21 -60 9 -123 19
-140 21 -16 2 -41 6 -55 9 -14 3 -42 7 -64 10 -61 7 -119 15 -146 20 -29 5
-68 11 -125 20 -23 3 -50 7 -60 9 -62 12 -153 14 -175 5z"/>
</g>
</svg>
